<svg width="15" height="20" viewBox="0 0 15 20" fill="none" xmlns="http://www.w3.org/2000/svg">
<g clip-path="url(#clip0_42_168)">
<path d="M1.19133 9.94119C1.97382 11.3221 3.44674 12.1506 5.88628 12.3807C5.51805 12.6569 5.10379 13.1632 5.05776 13.7616C4.59747 14.0378 3.72292 14.1298 3.03248 13.8997C2.06588 13.5775 1.69765 11.6903 0.224722 11.9665C-0.0974805 12.0125 -0.0514516 12.2426 0.224722 12.4268C0.685011 12.7029 1.19133 13.1632 1.42147 13.8076C1.97382 15.2345 3.12454 15.6027 4.9657 15.3266V17.3979C4.9657 18.0423 4.04512 18.2264 4.04512 18.5486C4.04512 18.6867 4.36732 18.6867 4.59747 18.6867C5.05776 18.6867 6.07039 18.2724 6.07039 17.628C6.07039 17.0757 6.07039 15.2345 6.11642 14.9123C6.11642 14.2219 6.48465 13.9917 6.48465 13.9917C6.48465 13.9917 6.53068 17.7661 6.39259 18.2264C6.20848 18.8248 5.93231 18.7327 5.93231 19.0089C5.93231 19.4231 7.12906 19.1009 7.54332 18.2264C7.86552 17.536 7.72743 13.8536 7.6814 13.8997H8.00361C8.00361 13.8997 8.00361 15.6027 8.04963 16.3392C8.04963 17.1217 8.00361 18.1343 8.46389 18.6407C8.7861 18.9629 9.79873 19.5152 9.79873 19.0089C9.79873 18.7327 9.24639 18.4565 9.24639 17.674V14.0378C9.70668 14.0378 9.61462 15.2345 9.61462 15.2345L9.66065 17.4439C9.66065 17.4439 9.56859 18.2724 10.5352 18.5946C10.9034 18.7327 11.6399 18.7327 11.6859 18.5486C11.7319 18.3645 10.7653 18.0423 10.7653 17.3979V15.1425C10.7653 13.4854 10.5352 12.887 9.7527 12.3807C12.1922 12.1506 13.7112 11.5522 14.4477 9.94119C14.9079 9.02061 15 7.91592 15 7.0874C15 4.78595 13.8953 4.00346 13.6652 3.5892C13.9874 1.84011 13.6191 1.05761 13.435 0.827469C12.7906 0.597325 11.2256 1.37982 10.3971 1.93216C9.01624 1.5179 6.07039 1.56393 4.9657 2.02422C2.94043 0.597325 1.88176 0.827469 1.88176 0.827469C1.88176 0.827469 1.19133 2.07025 1.69765 3.86538C1.00721 4.6939 0.546924 5.29227 0.500895 6.85725C0.500895 8.10004 0.638982 8.88253 1.19133 9.94119Z" fill="white"/>
</g>
<defs>
<clipPath id="clip0_42_168">
<rect width="15" height="20" fill="white"/>
</clipPath>
</defs>
</svg>
