<svg width="20" height="20" viewBox="0 0 20 20" fill="none" xmlns="http://www.w3.org/2000/svg">
<g clip-path="url(#clip0_42_165)">
<path d="M0.330845 6.64597H4.48169V19.9991H0.330845V6.64597ZM2.40321 1.43108e-06C3.72747 1.43108e-06 4.80381 1.07822 4.80381 2.40479C4.80381 3.73136 3.72747 4.81221 2.40409 4.81221C1.76706 4.81082 1.1565 4.55677 0.705976 4.10562C0.255447 3.65446 0.00161415 3.04293 0 2.40479C-1.87718e-07 2.08877 0.0621794 1.77585 0.182984 1.48391C0.303789 1.19198 0.48085 0.926761 0.704043 0.703421C0.927236 0.480081 1.19218 0.303 1.48374 0.182302C1.7753 0.0616043 2.08774 -0.000343321 2.40321 1.43108e-06ZM7.07346 6.64597H11.0471V8.47099H11.1021C11.6555 7.42163 13.0069 6.31455 15.0303 6.31455C19.2257 6.31455 20 9.0805 20 12.6754V20H15.8596V13.5044C15.8596 11.9566 15.8317 9.96284 13.707 9.96284C11.5508 9.96284 11.2191 11.6506 11.2191 13.3908V19.9965H7.07957V6.64335L7.07346 6.64597Z" fill="white"/>
</g>
<defs>
<clipPath id="clip0_42_165">
<rect width="20" height="20" fill="white"/>
</clipPath>
</defs>
</svg>
