<svg width="42" height="42" viewBox="0 0 42 42" fill="none" xmlns="http://www.w3.org/2000/svg">
<g clip-path="url(#clip0_26_181)">
<path d="M20.8689 0.114182L21.9898 2.21943C22.2418 2.60793 22.5148 2.95181 22.8363 3.27206C23.7748 4.21049 24.666 5.19356 25.4666 6.24618C27.3658 8.73993 28.6468 11.5093 29.5616 14.5044C30.1102 16.3341 30.4082 18.2109 30.4305 20.1088C30.5223 25.7827 28.5772 30.6547 24.6555 34.7038C24.015 35.3443 23.3298 35.9376 22.5948 36.4652C22.2063 36.4652 22.0226 36.1672 21.8625 35.8929C21.5645 35.3902 21.3821 34.8167 21.2902 34.2457C21.1524 33.5593 21.0618 32.8729 21.1065 32.1641V31.8439C21.075 31.7756 20.7324 0.275619 20.8689 0.114182Z" fill="url(#paint0_linear_26_181)"/>
<path d="M20.8687 0.0446199C20.8227 -0.0472551 20.7768 0.0223074 20.7309 0.0669324C20.7532 0.526307 20.5931 0.935807 20.3424 1.32693C20.0667 1.71543 19.7019 2.01337 19.3357 2.33362C17.3013 4.09499 15.7001 6.22256 14.4177 8.60212C12.7115 11.8046 11.8321 15.2368 11.5827 18.8501C11.4686 20.1534 11.9949 24.7524 12.4057 26.0794C13.5266 29.6021 15.5399 32.5539 18.1479 35.1159C18.7884 35.7328 19.4735 36.3051 20.1822 36.855C20.3883 36.855 20.4106 36.6712 20.4579 36.5347C20.5482 36.2427 20.6171 35.9444 20.6639 35.6422L21.1233 32.2114L20.8687 0.0446199Z" fill="url(#paint1_linear_26_181)"/>
<path d="M21.9894 37.8591C22.0354 37.3341 22.2874 36.8983 22.5617 36.4639C22.2861 36.3497 22.0813 36.1226 21.9212 35.8693C21.7834 35.6409 21.6692 35.3666 21.5799 35.1146C21.2597 34.1539 21.1914 33.1459 21.0996 32.1641V31.5696C20.9854 31.6614 20.9618 32.4384 20.9618 32.5539C20.895 33.5916 20.7573 34.6234 20.5496 35.6423C20.4814 36.0544 20.4354 36.4652 20.1821 36.8314C20.1821 36.8773 20.1821 36.9233 20.2044 36.9915C20.6166 38.2043 20.7294 39.4393 20.799 40.698V41.1574C20.799 41.706 20.7767 41.5905 21.2321 41.7743C21.4159 41.8425 21.6206 41.8661 21.8044 42.0026C21.9422 42.0026 21.9645 41.8884 21.9645 41.7966L21.8963 41.0419V38.9366C21.8739 38.5691 21.9422 38.2043 21.9881 37.8604L21.9894 37.8591Z" fill="url(#paint2_linear_26_181)"/>
</g>
<defs>
<linearGradient id="paint0_linear_26_181" x1="25.6352" y1="0.114182" x2="25.6352" y2="36.4652" gradientUnits="userSpaceOnUse">
<stop stop-color="#FDFDFD"/>
<stop offset="1" stop-color="white" stop-opacity="0.2"/>
</linearGradient>
<linearGradient id="paint1_linear_26_181" x1="16.3451" y1="-0.000534058" x2="16.3451" y2="36.855" gradientUnits="userSpaceOnUse">
<stop stop-color="#FDFDFD"/>
<stop offset="1" stop-color="white" stop-opacity="0.2"/>
</linearGradient>
<linearGradient id="paint2_linear_26_181" x1="21.3719" y1="31.5696" x2="21.3719" y2="42.0026" gradientUnits="userSpaceOnUse">
<stop stop-color="#FDFDFD"/>
<stop offset="1" stop-color="white" stop-opacity="0.2"/>
</linearGradient>
<clipPath id="clip0_26_181">
<rect width="42" height="42" fill="white"/>
</clipPath>
</defs>
</svg>
