<svg width="42" height="42" viewBox="0 0 42 42" fill="none" xmlns="http://www.w3.org/2000/svg">
<g clip-path="url(#clip0_26_164)">
<path d="M19.2359 0.0640943C20.2859 -0.530468 21.6247 -0.533093 22.6484 0.0640943L38.3249 8.90116C39.3054 9.45241 39.9616 10.5457 39.9524 11.6758V29.3945C39.959 30.5718 39.2384 31.6888 38.2042 32.2295L22.6117 41.0259C22.0784 41.3206 21.4759 41.4672 20.8668 41.4503C20.2577 41.4335 19.6642 41.2538 19.148 40.9301L14.4689 38.2263C14.15 38.036 13.7917 37.8851 13.5659 37.5767C13.7654 37.3089 14.1198 37.2748 14.4085 37.1567C15.0595 36.9493 15.6554 36.6317 16.2539 36.2957C16.4049 36.1907 16.5899 36.23 16.7343 36.3245L20.7243 38.6319C21.0091 38.796 21.2979 38.5794 21.542 38.4416L36.8523 29.8014C37.0413 29.7095 37.1463 29.51 37.1305 29.3027V11.7545C37.1515 11.5183 37.0164 11.303 36.8024 11.2072L21.2493 2.44891C21.1597 2.38691 21.0533 2.3536 20.9443 2.35336C20.8354 2.35313 20.7289 2.38599 20.639 2.44759L5.10817 11.2243C4.89817 11.3201 4.7538 11.5327 4.78005 11.769V29.3171C4.76167 29.5245 4.87192 29.72 5.06224 29.8093L9.21236 32.1521C9.99199 32.5721 10.9488 32.8083 11.8072 32.4999C12.1828 32.3583 12.5062 32.1053 12.734 31.7748C12.9617 31.4443 13.0831 31.052 13.0816 30.6506L13.0856 13.2075C13.0672 12.9489 13.3113 12.735 13.562 12.7612H15.557C15.8195 12.7547 16.0255 13.0329 15.9901 13.2928L15.9862 30.8462C15.9875 32.4054 15.347 34.1012 13.9045 34.8663C12.1274 35.7851 9.9303 35.5922 8.17417 34.7088L3.71167 32.2413C2.66167 31.7163 1.95686 30.5823 1.96342 29.4063V11.6876C1.96779 11.1117 2.12611 10.5475 2.42197 10.0534C2.71783 9.55927 3.14046 9.15329 3.64605 8.87753L19.2359 0.0640943ZM23.7562 12.3465C26.0229 12.2152 28.4497 12.2598 30.4893 13.3768C32.0682 14.2325 32.9437 16.028 32.9725 17.7842C32.9279 18.0204 32.6812 18.1517 32.4554 18.1346C31.7992 18.1333 31.1403 18.1438 30.4814 18.1307C30.2019 18.1412 30.0404 17.8839 30.005 17.6372C29.816 16.7972 29.3579 15.9663 28.5678 15.5608C27.355 14.9531 25.948 14.9833 24.625 14.9964C23.659 15.0489 22.6209 15.1316 21.8032 15.6986C21.1732 16.1291 20.9842 17.0111 21.2086 17.6962C21.4186 18.1989 22 18.3603 22.4739 18.51C25.2065 19.224 28.1005 19.1662 30.782 20.0942C31.891 20.4774 32.9765 21.2229 33.3571 22.3845C33.8532 23.9411 33.6367 25.8022 32.5302 27.0517C31.6325 28.0807 30.3252 28.6267 29.0193 28.9443C27.2829 29.3315 25.4821 29.3407 23.7194 29.1675C22.0617 28.9785 20.3371 28.5427 19.0574 27.414C17.9628 26.4637 17.4299 24.9832 17.4824 23.5552C17.4955 23.3137 17.7357 23.1457 17.968 23.1654H19.9368C20.2019 23.147 20.3962 23.3754 20.4093 23.6248C20.5314 24.4123 20.8319 25.2654 21.5302 25.7248C22.8768 26.5937 24.566 26.5333 26.1069 26.5582C27.3839 26.5018 28.8172 26.4847 29.8606 25.6395C30.4119 25.1578 30.5733 24.3532 30.425 23.6602C30.2635 23.0748 29.6375 22.8032 29.1125 22.6102C26.4153 21.7571 23.4884 22.0668 20.8175 21.1008C19.7334 20.7176 18.6847 19.9931 18.2686 18.8788C17.6872 17.3038 17.9536 15.3521 19.1782 14.1446C20.3594 12.9437 22.0919 12.4803 23.7325 12.315L23.7562 12.3465Z" fill="url(#paint0_linear_26_164)"/>
</g>
<defs>
<linearGradient id="paint0_linear_26_164" x1="20.9579" y1="-0.382813" x2="20.9579" y2="41.4516" gradientUnits="userSpaceOnUse">
<stop stop-color="#FDFDFD"/>
<stop offset="1" stop-color="white" stop-opacity="0.2"/>
</linearGradient>
<clipPath id="clip0_26_164">
<rect width="42" height="42" fill="white"/>
</clipPath>
</defs>
</svg>
