<svg width="32" height="32" viewBox="0 0 32 32" fill="none" xmlns="http://www.w3.org/2000/svg">
<g clip-path="url(#clip0_38_171)">
<path d="M0 16C0 24.8366 7.16344 32 16 32C24.8366 32 32 24.8366 32 16C32 7.16344 24.8366 0 16 0C7.16344 0 0 7.16344 0 16Z" fill="#64FFDA"/>
<path d="M14.3646 12.8623C14.3646 13.278 14.6345 13.6207 15.1743 13.8909C15.7348 14.1403 16.4096 14.3688 17.1986 14.5766C17.9876 14.7636 18.7766 15.013 19.5655 15.3247C20.3545 15.6156 21.0189 16.1143 21.5587 16.8207C22.1193 17.5273 22.3997 18.4104 22.3997 19.4701C22.3997 21.0701 21.7976 22.3064 20.5933 23.1793C19.4098 24.0312 17.9253 24.4571 16.1397 24.4571C12.9424 24.4571 10.7623 23.2207 9.59961 20.748L13.0877 18.7844C13.5445 20.135 14.5618 20.8104 16.1397 20.8104C17.5724 20.8104 18.2887 20.3636 18.2887 19.4701C18.2887 19.0546 18.0084 18.722 17.4477 18.4727C16.9079 18.2026 16.2435 17.9636 15.4546 17.7559C14.6656 17.548 13.8767 17.2883 13.0877 16.9766C12.2987 16.665 11.6239 16.1766 11.0634 15.5117C10.5235 14.826 10.2536 13.974 10.2536 12.9559C10.2536 11.4182 10.8142 10.213 11.9354 9.34026C13.0773 8.44676 14.4891 8 16.1709 8C17.4374 8 18.5897 8.29091 19.6278 8.87273C20.6659 9.43377 21.486 10.2442 22.0881 11.3039L18.6623 13.174C18.1641 12.1143 17.3335 11.5844 16.1709 11.5844C15.6519 11.5844 15.2158 11.6987 14.8629 11.9273C14.5306 12.1558 14.3646 12.4675 14.3646 12.8623Z" fill="#3B3B3B"/>
</g>
<defs>
<clipPath id="clip0_38_171">
<rect width="32" height="32" fill="white"/>
</clipPath>
</defs>
</svg>
