<svg width="42" height="42" viewBox="0 0 42 42" fill="none" xmlns="http://www.w3.org/2000/svg">
<path fill-rule="evenodd" clip-rule="evenodd" d="M10.5 16.8C11.8998 11.2002 15.4002 8.39999 21 8.39999C29.4 8.39999 30.45 14.7 34.65 15.75C37.4502 16.4502 39.9 15.4002 42 12.6C40.6002 18.1998 37.0998 21 31.5 21C23.1 21 22.05 14.7 17.85 13.65C15.0498 12.9498 12.6 13.9998 10.5 16.8ZM0 29.4C1.39978 23.8002 4.90022 21 10.5 21C18.9 21 19.95 27.3 24.15 28.35C26.9502 29.0502 29.4 28.0002 31.5 25.2C30.1002 30.7998 26.5998 33.6 21 33.6C12.6 33.6 11.55 27.3 7.35 26.25C4.54978 25.5498 2.1 26.5998 0 29.4Z" fill="url(#paint0_linear_26_211)"/>
<defs>
<linearGradient id="paint0_linear_26_211" x1="1.04368e-06" y1="-13.9998" x2="42" y2="55.9998" gradientUnits="userSpaceOnUse">
<stop stop-color="white"/>
<stop offset="1" stop-color="#FDFDFD" stop-opacity="0.2"/>
</linearGradient>
</defs>
</svg>
