<svg width="42" height="42" viewBox="0 0 42 42" fill="none" xmlns="http://www.w3.org/2000/svg">
<g clip-path="url(#clip0_26_186)">
<path d="M37.8984 -0.5H4.10156C1.83633 -0.5 0 1.33633 0 3.60156V37.3984C0 39.6637 1.83633 41.5 4.10156 41.5H37.8984C40.1637 41.5 42 39.6637 42 37.3984V3.60156C42 1.33633 40.1637 -0.5 37.8984 -0.5Z" fill="url(#paint0_linear_26_186)"/>
<path fill-rule="evenodd" clip-rule="evenodd" d="M25.9989 33.4215V37.5281C26.6665 37.8703 27.456 38.1269 28.3676 38.298C29.2791 38.4691 30.2398 38.5547 31.2497 38.5547C32.234 38.5547 33.169 38.4606 34.0549 38.2723C34.9407 38.0842 35.7175 37.774 36.385 37.3419C37.0526 36.91 37.5811 36.3453 37.9705 35.648C38.3599 34.9507 38.5547 34.0888 38.5547 33.0622C38.5547 32.3179 38.4435 31.6655 38.2209 31.1052C37.9984 30.5448 37.6774 30.0465 37.258 29.6102C36.8387 29.1738 36.3358 28.7824 35.7495 28.4359C35.1633 28.0894 34.5021 27.7622 33.766 27.4542C33.2268 27.2317 32.7433 27.0158 32.3153 26.8062C31.8874 26.5965 31.5236 26.3826 31.224 26.1645C30.9245 25.9463 30.6934 25.7153 30.5308 25.4715C30.3682 25.2276 30.2868 24.9518 30.2868 24.6437C30.2868 24.3615 30.3596 24.1069 30.5051 23.8802C30.6506 23.6535 30.8561 23.4589 31.1213 23.2963C31.3867 23.1338 31.7119 23.0076 32.097 22.9177C32.4822 22.8279 32.9101 22.783 33.3809 22.783C33.7232 22.783 34.0848 22.8087 34.4657 22.86C34.8465 22.9113 35.2296 22.9905 35.6148 23.0974C35.9999 23.2043 36.3743 23.3391 36.7381 23.5016C37.1018 23.6642 37.4378 23.8524 37.7459 24.0663V20.2292C37.1211 19.9897 36.4385 19.8122 35.6982 19.6967C34.9579 19.5812 34.1083 19.5234 33.1498 19.5234C32.1741 19.5234 31.2497 19.6283 30.3767 19.8379C29.5038 20.0475 28.7356 20.3747 28.0722 20.8195C27.4089 21.2645 26.8848 21.8312 26.4996 22.52C26.1145 23.2086 25.9219 24.032 25.9219 24.9902C25.9219 26.2137 26.2749 27.2574 26.9811 28.1215C27.6871 28.9856 28.7591 29.7171 30.197 30.316C30.7619 30.547 31.2883 30.7736 31.7761 30.9961C32.264 31.2186 32.6855 31.4496 33.0406 31.6891C33.3958 31.9286 33.6761 32.1896 33.8816 32.4719C34.087 32.7542 34.1897 33.075 34.1897 33.4344C34.1897 33.6996 34.1255 33.9455 33.9971 34.1722C33.8687 34.399 33.674 34.5957 33.413 34.7625C33.1519 34.9294 32.8267 35.0598 32.4373 35.1539C32.0478 35.2481 31.5921 35.2951 31.07 35.2951C30.1799 35.2951 29.2984 35.139 28.4253 34.8267C27.5523 34.5145 26.7435 34.0461 25.9989 33.4215ZM19.0952 23.3036H24.3633V19.9336H9.67969V23.3036H14.922V38.3086H19.0952V23.3036Z" fill="#171717"/>
</g>
<defs>
<linearGradient id="paint0_linear_26_186" x1="21" y1="-0.5" x2="21" y2="41.5" gradientUnits="userSpaceOnUse">
<stop stop-color="#FDFDFD" stop-opacity="0.83"/>
<stop offset="1" stop-color="white" stop-opacity="0.2"/>
</linearGradient>
<clipPath id="clip0_26_186">
<rect width="42" height="42" fill="white"/>
</clipPath>
</defs>
</svg>
