<svg width="28" height="32" viewBox="0 0 28 32" fill="none" xmlns="http://www.w3.org/2000/svg">
<g clip-path="url(#clip0_57_179)">
<path d="M22.5597 9.57211L14.3423 4.78606L6.125 9.57211V4.78606L14.3423 0L22.5597 4.78606V9.57211Z" fill="#A435F0"/>
<path d="M6.125 13.579H10.4528V24.0972C10.4528 26.8242 12.4797 28.1598 14.3423 28.1598C16.2597 28.1598 18.2319 26.8242 18.2319 24.0972V13.579H22.5597V24.3755C22.5597 26.8798 21.7927 28.8276 20.204 30.1633C18.6154 31.4989 16.698 32.1111 14.2876 32.1111C11.8771 32.1111 9.95976 31.4433 8.42586 30.1633C6.89195 28.772 6.125 26.9355 6.125 24.4311V13.579Z" fill="white"/>
</g>
<defs>
<clipPath id="clip0_57_179">
<rect width="28" height="32" fill="white"/>
</clipPath>
</defs>
</svg>
